# xmcd CD database file
#
# Track frame offsets:
#	150
#	14225
#	34702
#	59432
#	80690
#	105885
#	122610
#	137140
#	158695
#	183785
#
# Disc length: 2692 seconds
#
# Revision: 1
# Processed by: cddbd v1.5.2PL0 Copyright (c) Steve Scherf et al.
# Submitted via: CDex 2.15
#
DISCID=7b0a820a
DTITLE=Dean and Mary Brown - I Am Determined
DYEAR=1900
DGENRE=Christan - Contemporary
TTITLE0=Rejoice
TTITLE1=Faith Is
TTITLE2=What A Healing Jesus
TTITLE3=Isaiah 53
TTITLE4=I Am Determined
TTITLE5=Make A Joyful Noise
TTITLE6=I Will Lift Up My Eyes
TTITLE7=House Of The Lord
TTITLE8=Truly
TTITLE9=Holy, Holy, Holy
EXTD=
EXTT0=
EXTT1=
EXTT2=
EXTT3=
EXTT4=
EXTT5=
EXTT6=
EXTT7=
EXTT8=
EXTT9=
PLAYORDER=
